<svg width="30" height="30" viewBox="0 0 30 30" fill="none" xmlns="http://www.w3.org/2000/svg">
<g id="idea">
<path id="Vector" d="M17.8124 24.5292V25.7812H11.2499V24.5677C11.2539 24.221 11.1627 23.8798 10.9863 23.5814C10.8098 23.2829 10.5549 23.0386 10.2492 22.875C8.37835 21.9141 6.88499 20.352 6.00916 18.4398C5.13333 16.5277 4.9259 14.3766 5.42022 12.3323C5.91454 10.2881 7.08189 8.46939 8.73461 7.16868C10.3873 5.86797 12.4294 5.16077 14.5326 5.16077C16.6358 5.16077 18.6779 5.86797 20.3306 7.16868C21.9833 8.46939 23.1507 10.2881 23.645 12.3323C24.1393 14.3766 23.9319 16.5277 23.056 18.4398C22.1802 20.352 20.6869 21.9141 18.816 22.875C18.5132 23.0323 18.2594 23.2697 18.0824 23.5615C17.9054 23.8532 17.812 24.188 17.8124 24.5292Z" fill="url(#paint0_linear_5_92)"/>
<path id="Vector_2" d="M17.8125 25.7812H11.25C10.7322 25.7812 10.3125 26.201 10.3125 26.7188C10.3125 27.2365 10.7322 27.6562 11.25 27.6562H17.8125C18.3303 27.6562 18.75 27.2365 18.75 26.7188C18.75 26.201 18.3303 25.7812 17.8125 25.7812Z" fill="url(#paint1_linear_5_92)"/>
<path id="Vector_3" d="M16.875 27.6562H12.1875C11.6697 27.6562 11.25 28.076 11.25 28.5938C11.25 29.1115 11.6697 29.5312 12.1875 29.5312H16.875C17.3928 29.5312 17.8125 29.1115 17.8125 28.5938C17.8125 28.076 17.3928 27.6562 16.875 27.6562Z" fill="url(#paint2_linear_5_92)"/>
<path id="Vector_4" d="M14.5312 3.75C14.6556 3.75 14.7748 3.70061 14.8627 3.61271C14.9506 3.5248 15 3.40557 15 3.28125V0.46875C15 0.34443 14.9506 0.225201 14.8627 0.137294C14.7748 0.049386 14.6556 0 14.5312 0C14.4069 0 14.2877 0.049386 14.1998 0.137294C14.1119 0.225201 14.0625 0.34443 14.0625 0.46875V3.28125C14.0625 3.40557 14.1119 3.5248 14.1998 3.61271C14.2877 3.70061 14.4069 3.75 14.5312 3.75ZM6.23109 6.89391C6.3195 6.97929 6.43791 7.02654 6.56081 7.02547C6.68372 7.0244 6.80129 6.97511 6.8882 6.8882C6.97511 6.80129 7.0244 6.68372 7.02547 6.56081C7.02654 6.43791 6.97929 6.3195 6.89391 6.23109L4.55016 3.88734C4.46175 3.80196 4.34334 3.75471 4.22044 3.75578C4.09753 3.75685 3.97996 3.80614 3.89305 3.89305C3.80614 3.97996 3.75685 4.09753 3.75578 4.22044C3.75471 4.34334 3.80196 4.46175 3.88734 4.55016L6.23109 6.89391ZM22.5 7.03125C22.6243 7.03122 22.7435 6.98182 22.8314 6.89391L25.1752 4.55016C25.2605 4.46175 25.3078 4.34334 25.3067 4.22044C25.3057 4.09753 25.2564 3.97996 25.1694 3.89305C25.0825 3.80614 24.965 3.75685 24.8421 3.75578C24.7192 3.75471 24.6007 3.80196 24.5123 3.88734L22.1686 6.23109C22.1031 6.29665 22.0584 6.38016 22.0404 6.47108C22.0223 6.56199 22.0316 6.65623 22.067 6.74187C22.1025 6.82751 22.1626 6.90071 22.2396 6.95222C22.3167 7.00373 22.4073 7.03123 22.5 7.03125ZM6.23109 22.1686L3.88734 24.5123C3.84257 24.5556 3.80686 24.6073 3.7823 24.6645C3.75773 24.7217 3.7448 24.7832 3.74426 24.8454C3.74372 24.9077 3.75558 24.9694 3.77915 25.027C3.80272 25.0846 3.83752 25.137 3.88153 25.181C3.92555 25.225 3.97788 25.2598 4.03549 25.2834C4.0931 25.3069 4.15482 25.3188 4.21706 25.3182C4.2793 25.3177 4.34081 25.3048 4.398 25.2802C4.45519 25.2556 4.50692 25.2199 4.55016 25.1752L6.89391 22.8314C6.97929 22.743 7.02654 22.6246 7.02547 22.5017C7.0244 22.3788 6.97511 22.2612 6.8882 22.1743C6.80129 22.0874 6.68372 22.0381 6.56081 22.037C6.43791 22.036 6.3195 22.0832 6.23109 22.1686ZM22.8314 22.1686C22.743 22.0832 22.6246 22.036 22.5017 22.037C22.3788 22.0381 22.2612 22.0874 22.1743 22.1743C22.0874 22.2612 22.0381 22.3788 22.037 22.5017C22.036 22.6246 22.0832 22.743 22.1686 22.8314L24.5123 25.1752C24.6007 25.2605 24.7192 25.3078 24.8421 25.3067C24.965 25.3057 25.0825 25.2564 25.1694 25.1694C25.2564 25.0825 25.3057 24.965 25.3067 24.8421C25.3078 24.7192 25.2605 24.6007 25.1752 24.5123L22.8314 22.1686ZM3.28125 14.0625H0.46875C0.34443 14.0625 0.225201 14.1119 0.137294 14.1998C0.049386 14.2877 0 14.4069 0 14.5312C0 14.6556 0.049386 14.7748 0.137294 14.8627C0.225201 14.9506 0.34443 15 0.46875 15H3.28125C3.40557 15 3.5248 14.9506 3.61271 14.8627C3.70061 14.7748 3.75 14.6556 3.75 14.5312C3.75 14.4069 3.70061 14.2877 3.61271 14.1998C3.5248 14.1119 3.40557 14.0625 3.28125 14.0625ZM28.5938 14.0677H25.7812C25.7197 14.0677 25.6587 14.0798 25.6019 14.1033C25.545 14.1269 25.4933 14.1614 25.4498 14.205C25.4063 14.2485 25.3717 14.3002 25.3482 14.357C25.3246 14.4139 25.3125 14.4748 25.3125 14.5364C25.3125 14.598 25.3246 14.6589 25.3482 14.7158C25.3717 14.7727 25.4063 14.8243 25.4498 14.8679C25.4933 14.9114 25.545 14.9459 25.6019 14.9695C25.6587 14.993 25.7197 15.0052 25.7812 15.0052H28.5938C28.7181 15.0052 28.8373 14.9558 28.9252 14.8679C29.0131 14.78 29.0625 14.6607 29.0625 14.5364C29.0625 14.4121 29.0131 14.2929 28.9252 14.205C28.8373 14.117 28.7181 14.0677 28.5938 14.0677Z" fill="#50373B"/>
<path id="Vector_5" d="M19.0313 23.287C20.6431 22.4627 21.9954 21.2084 22.9385 19.6631C23.8816 18.1178 24.3788 16.3416 24.375 14.5313C24.3765 14.2025 24.3609 13.874 24.3281 13.5469C24.3224 13.4851 24.3046 13.4251 24.2755 13.3702C24.2464 13.3154 24.2068 13.2669 24.1588 13.2276C24.1108 13.1882 24.0555 13.1587 23.9961 13.1409C23.9367 13.1231 23.8743 13.1172 23.8126 13.1236C23.7509 13.1301 23.6911 13.1487 23.6366 13.1785C23.5822 13.2082 23.5342 13.2485 23.4954 13.2969C23.4566 13.3454 23.4279 13.401 23.4108 13.4607C23.3937 13.5203 23.3886 13.5828 23.3958 13.6444C23.4251 13.9391 23.4391 14.2351 23.4375 14.5313C23.4406 16.1694 22.9904 17.7764 22.1368 19.1745C21.2832 20.5727 20.0595 21.7074 18.6009 22.4531C18.2203 22.6497 17.9014 22.9476 17.6795 23.3141C17.4576 23.6806 17.3414 24.1013 17.3438 24.5297V25.3125H16.4063V19.6875H17.8125C18.2761 19.6875 18.7292 19.55 19.1146 19.2925C19.5001 19.035 19.8005 18.6689 19.9779 18.2407C20.1552 17.8124 20.2017 17.3412 20.1112 16.8865C20.0208 16.4319 19.7976 16.0143 19.4698 15.6865C19.142 15.3587 18.7244 15.1355 18.2698 15.045C17.8151 14.9546 17.3439 15.001 16.9156 15.1784C16.4873 15.3558 16.1213 15.6562 15.8638 16.0416C15.6062 16.4271 15.4688 16.8802 15.4688 17.3438V18.75H13.5938V17.3438C13.5938 16.8802 13.4563 16.4271 13.1988 16.0416C12.9412 15.6562 12.5752 15.3558 12.1469 15.1784C11.7187 15.001 11.2474 14.9546 10.7928 15.045C10.3381 15.1355 9.92051 15.3587 9.59273 15.6865C9.26495 16.0143 9.04173 16.4319 8.9513 16.8865C8.86086 17.3412 8.90728 17.8124 9.08467 18.2407C9.26206 18.6689 9.56247 19.035 9.94789 19.2925C10.3333 19.55 10.7865 19.6875 11.25 19.6875H12.6563V25.3125H11.7188V24.5672C11.722 24.1348 11.607 23.7097 11.3862 23.3379C11.1654 22.9661 10.8471 22.6618 10.4658 22.4578C9.22498 21.8218 8.15082 20.9034 7.3298 19.7764C6.50877 18.6494 5.96381 17.3455 5.73879 15.9694C5.51376 14.5934 5.61496 13.1837 6.03424 11.8539C6.45351 10.5242 7.17915 9.31139 8.15274 8.31326C9.12633 7.31514 10.3207 6.55954 11.6396 6.1073C12.9585 5.65507 14.3652 5.51882 15.7465 5.70953C17.1277 5.90024 18.4448 6.41258 19.5919 7.20531C20.7389 7.99803 21.6838 9.049 22.3505 10.2736C22.3789 10.3294 22.4182 10.3789 22.466 10.4193C22.5139 10.4597 22.5693 10.49 22.6291 10.5086C22.6889 10.5272 22.7518 10.5336 22.8141 10.5275C22.8764 10.5213 22.9369 10.5028 22.9919 10.4729C23.0469 10.443 23.0954 10.4025 23.1345 10.3535C23.1736 10.3046 23.2024 10.2484 23.2194 10.1881C23.2364 10.1278 23.2411 10.0648 23.2333 10.0027C23.2256 9.94055 23.2054 9.88062 23.1741 9.82641C22.2924 8.18364 20.9585 6.8279 19.3302 5.91973C17.702 5.01155 15.8476 4.58898 13.9866 4.70204C11.8268 4.8206 9.76617 5.64724 8.12324 7.0542C6.48031 8.46116 5.34653 10.3701 4.89716 12.4859C4.44778 14.6018 4.70783 16.8067 5.6371 18.76C6.56637 20.7133 8.11313 22.306 10.0383 23.2922C10.2665 23.4169 10.4563 23.6016 10.5872 23.8263C10.7181 24.051 10.7852 24.3072 10.7813 24.5672V25.3988C10.4987 25.4974 10.2552 25.6841 10.0867 25.9315C9.91811 26.1788 9.83337 26.4737 9.84492 26.7728C9.85646 27.0719 9.96367 27.3594 10.1508 27.593C10.3379 27.8266 10.595 27.994 10.8844 28.0706C10.7977 28.2838 10.7649 28.515 10.7888 28.7439C10.8126 28.9728 10.8925 29.1922 11.0213 29.3829C11.1501 29.5736 11.3239 29.7297 11.5273 29.8373C11.7306 29.9449 11.9574 30.0008 12.1875 30H16.875C17.1051 30.0008 17.3319 29.9449 17.5353 29.8373C17.7387 29.7297 17.9124 29.5736 18.0412 29.3829C18.17 29.1922 18.2499 28.9728 18.2738 28.7439C18.2976 28.515 18.2648 28.2838 18.1781 28.0706C18.4675 27.994 18.7246 27.8266 18.9117 27.593C19.0989 27.3594 19.2061 27.0719 19.2176 26.7728C19.2292 26.4737 19.1444 26.1788 18.9759 25.9315C18.8073 25.6841 18.5638 25.4974 18.2813 25.3988V24.5297C18.2795 24.2735 18.3486 24.0219 18.481 23.8026C18.6133 23.5832 18.8038 23.4048 19.0313 23.287ZM16.4063 17.3438C16.4063 17.0656 16.4887 16.7937 16.6433 16.5625C16.7978 16.3312 17.0174 16.151 17.2744 16.0446C17.5313 15.9381 17.8141 15.9103 18.0869 15.9645C18.3596 16.0188 18.6102 16.1527 18.8069 16.3494C19.0035 16.5461 19.1375 16.7966 19.1917 17.0694C19.246 17.3422 19.2182 17.6249 19.1117 17.8819C19.0053 18.1389 18.825 18.3585 18.5938 18.513C18.3625 18.6675 18.0906 18.75 17.8125 18.75H16.4063V17.3438ZM11.25 18.75C10.9719 18.75 10.7 18.6675 10.4687 18.513C10.2375 18.3585 10.0572 18.1389 9.95081 17.8819C9.84437 17.6249 9.81652 17.3422 9.87078 17.0694C9.92504 16.7966 10.059 16.5461 10.2556 16.3494C10.4523 16.1527 10.7029 16.0188 10.9757 15.9645C11.2485 15.9103 11.5312 15.9381 11.7882 16.0446C12.0451 16.151 12.2647 16.3312 12.4193 16.5625C12.5738 16.7937 12.6563 17.0656 12.6563 17.3438V18.75H11.25ZM13.5938 19.6875H15.4688V25.3125H13.5938V19.6875ZM16.875 29.0625H12.1875C12.0632 29.0625 11.944 29.0131 11.8561 28.9252C11.7681 28.8373 11.7188 28.7181 11.7188 28.5938C11.7188 28.4694 11.7681 28.3502 11.8561 28.2623C11.944 28.1744 12.0632 28.125 12.1875 28.125H16.875C16.9993 28.125 17.1186 28.1744 17.2065 28.2623C17.2944 28.3502 17.3438 28.4694 17.3438 28.5938C17.3438 28.7181 17.2944 28.8373 17.2065 28.9252C17.1186 29.0131 16.9993 29.0625 16.875 29.0625ZM17.8125 27.1875H11.25C11.1257 27.1875 11.0065 27.1381 10.9186 27.0502C10.8306 26.9623 10.7813 26.8431 10.7813 26.7188C10.7813 26.5944 10.8306 26.4752 10.9186 26.3873C11.0065 26.2994 11.1257 26.25 11.25 26.25H17.8125C17.9368 26.25 18.0561 26.2994 18.144 26.3873C18.2319 26.4752 18.2813 26.5944 18.2813 26.7188C18.2813 26.8431 18.2319 26.9623 18.144 27.0502C18.0561 27.1381 17.9368 27.1875 17.8125 27.1875Z" fill="#50373B"/>
<path id="Vector_6" d="M23.6156 11.2875C23.5891 11.274 23.5606 11.2645 23.5313 11.2594C23.4631 11.2448 23.3925 11.2458 23.3248 11.2622C23.257 11.2786 23.1938 11.31 23.1398 11.3541C23.0858 11.3982 23.0424 11.4538 23.0128 11.517C22.9832 11.5801 22.9681 11.649 22.9688 11.7188C22.9695 11.78 22.9823 11.8405 23.0063 11.8969C23.0289 11.9542 23.0623 12.0067 23.1047 12.0516C23.1945 12.1372 23.3134 12.1858 23.4375 12.1875C23.5618 12.1866 23.6809 12.1379 23.7703 12.0516C23.8575 11.9627 23.9063 11.8432 23.9063 11.7188C23.9063 11.5943 23.8575 11.4748 23.7703 11.3859C23.748 11.3659 23.7245 11.3471 23.7 11.3297C23.6738 11.312 23.6455 11.2978 23.6156 11.2875Z" fill="#50373B"/>
</g>
<defs>
<linearGradient id="paint0_linear_5_92" x1="14.5312" y1="5.15625" x2="14.5312" y2="25.7812" gradientUnits="userSpaceOnUse">
<stop stop-color="#FFD270"/>
<stop offset="1" stop-color="#F79F63"/>
</linearGradient>
<linearGradient id="paint1_linear_5_92" x1="14.5312" y1="25.7812" x2="14.5312" y2="27.6562" gradientUnits="userSpaceOnUse">
<stop stop-color="#E4E9F4"/>
<stop offset="1" stop-color="#BCCBE2"/>
</linearGradient>
<linearGradient id="paint2_linear_5_92" x1="-0.46875" y1="27.6562" x2="3.7519e-07" y2="29.5312" gradientUnits="userSpaceOnUse">
<stop stop-color="#E4E9F4"/>
<stop offset="1" stop-color="#BCCBE2"/>
</linearGradient>
</defs>
</svg>
