<svg width="30" height="23" viewBox="0 0 30 23" fill="none" xmlns="http://www.w3.org/2000/svg">
<g id="video">
<path id="Vector" d="M26.1675 0.840942L23.7938 0.544692C17.9537 -0.181564 12.0463 -0.181564 6.20625 0.544692L3.8325 0.840942C2.77501 0.974712 1.80252 1.48931 1.09708 2.28839C0.391635 3.08748 0.0016056 4.11627 0 5.18219L0 17.3109C0.0016056 18.3769 0.391635 19.4057 1.09708 20.2047C1.80252 21.0038 2.77501 21.5184 3.8325 21.6522L6.20625 21.9484C9.11375 22.3122 12.0725 22.4959 15 22.4959C17.9275 22.4959 20.8862 22.3122 23.7938 21.9484L26.1675 21.6522C27.2251 21.5187 28.1977 21.0042 28.9032 20.205C29.6087 19.4059 29.9987 18.3769 30 17.3109V5.18219C29.9984 4.11627 29.6084 3.08748 28.9029 2.28839C28.1975 1.48931 27.225 0.974712 26.1675 0.840942Z" fill="#303C42"/>
<path id="Vector_2" d="M28.75 17.3109C28.749 18.0724 28.4705 18.8074 27.9666 19.3782C27.4627 19.9491 26.7679 20.3167 26.0125 20.4122L23.6387 20.7084C17.9017 21.4222 12.0983 21.4222 6.36125 20.7084L3.9875 20.4122C3.23206 20.3167 2.53733 19.9491 2.03342 19.3782C1.52951 18.8074 1.25098 18.0724 1.25 17.3109V5.18217C1.25 3.61092 2.42625 2.27717 3.9875 2.08092L6.36125 1.78467C12.0983 1.07092 17.9017 1.07092 23.6387 1.78467L26.0125 2.08092C26.7678 2.17666 27.4624 2.54434 27.9663 3.11515C28.4701 3.68596 28.7487 4.4208 28.75 5.18217V17.3109Z" fill="#E53935"/>
<path id="Vector_3" opacity="0.1" d="M26.0125 2.08095L23.6387 1.7847C20.773 1.42739 17.8879 1.24871 15 1.2497C17.64 1.2497 20.2787 1.42845 22.8863 1.7847L25.0537 2.08095C26.4787 2.27595 27.5525 3.6097 27.5525 5.1822V17.3109C27.5525 18.8834 26.4787 20.2172 25.0537 20.4122L22.8863 20.7084C20.2727 21.0656 17.6378 21.2443 15 21.2434C17.8912 21.2434 20.7825 21.0647 23.6387 20.7084L26.0125 20.4122C26.7679 20.3167 27.4627 19.9491 27.9666 19.3782C28.4705 18.8074 28.749 18.0724 28.75 17.3109V5.1822C28.7487 4.42082 28.4701 3.68598 27.9663 3.11517C27.4624 2.54436 26.7678 2.17669 26.0125 2.08095Z" fill="black"/>
<path id="Vector_4" opacity="0.2" d="M4.94625 20.4122C3.52125 20.2172 2.4475 18.8834 2.4475 17.3109V5.1822C2.4475 3.6097 3.52125 2.27595 4.94625 2.08095L7.11375 1.7847C9.72731 1.42755 12.3622 1.2488 15 1.2497C12.1088 1.2497 9.2175 1.42845 6.36125 1.7847L3.9875 2.08095C3.23216 2.17669 2.53759 2.54436 2.03373 3.11517C1.52987 3.68598 1.25125 4.42082 1.25 5.1822V17.3109C1.25 18.8834 2.42625 20.2172 3.9875 20.4122L6.36125 20.7084C9.2175 21.0659 12.1088 21.2434 15 21.2434C12.3622 21.2437 9.72737 21.065 7.11375 20.7084L4.94625 20.4122Z" fill="white"/>
<path id="Vector_5" d="M12.2137 5.09595C12.1192 5.03546 12.0101 5.00149 11.898 4.9976C11.7858 4.99371 11.6746 5.02004 11.5761 5.07383C11.4776 5.12762 11.3954 5.2069 11.338 5.30337C11.2806 5.39984 11.2502 5.50996 11.25 5.6222V16.8722C11.2505 16.9843 11.281 17.0943 11.3385 17.1906C11.3959 17.2869 11.4782 17.366 11.5767 17.4196C11.6751 17.4733 11.7862 17.4995 11.8983 17.4955C12.0103 17.4916 12.1193 17.4576 12.2137 17.3972L20.9637 11.7722C21.0517 11.7157 21.1241 11.6381 21.1743 11.5463C21.2244 11.4546 21.2507 11.3517 21.2507 11.2472C21.2507 11.1427 21.2244 11.0398 21.1743 10.9481C21.1241 10.8563 21.0517 10.7787 20.9637 10.7222L12.2137 5.09595Z" fill="#303C42"/>
<path id="Vector_6" d="M12.5 15.7272V6.76721L19.4688 11.2472L12.5 15.7272Z" fill="white"/>
<path id="Vector_7" opacity="0.1" d="M19.4688 11.2472L12.5 6.76721L18.8312 11.6572L19.4688 11.2472Z" fill="black"/>
<path id="Vector_8" d="M26.1675 0.840942L23.7938 0.544692C17.9537 -0.181564 12.0463 -0.181564 6.20625 0.544692L3.8325 0.840942C2.77501 0.974712 1.80252 1.48931 1.09708 2.28839C0.391635 3.08748 0.0016056 4.11627 0 5.18219L0 17.3109C0.0016056 18.3769 0.391635 19.4057 1.09708 20.2047C1.80252 21.0038 2.77501 21.5184 3.8325 21.6522L6.20625 21.9484C9.11375 22.3122 12.0725 22.4959 15 22.4959C17.9275 22.4959 20.8862 22.3122 23.7938 21.9484L26.1675 21.6522C27.2251 21.5187 28.1977 21.0042 28.9032 20.205C29.6087 19.4059 29.9987 18.3769 30 17.3109V5.18219C29.9984 4.11627 29.6084 3.08748 28.9029 2.28839C28.1975 1.48931 27.225 0.974712 26.1675 0.840942Z" fill="url(#paint0_linear_5_93)"/>
</g>
<defs>
<linearGradient id="paint0_linear_5_93" x1="-0.0137501" y1="4.24594" x2="30.0137" y2="18.2484" gradientUnits="userSpaceOnUse">
<stop stop-color="white" stop-opacity="0.2"/>
<stop offset="1" stop-color="white" stop-opacity="0"/>
</linearGradient>
</defs>
</svg>
